<svg width="120" height="120" viewBox="0 0 120 120" fill="none" xmlns="http://www.w3.org/2000/svg">
<path d="M94 0H26C11.6406 0 0 11.6406 0 26V94C0 108.359 11.6406 120 26 120H94C108.359 120 120 108.359 120 94V26C120 11.6406 108.359 0 94 0Z" fill="#00B900"/>
<path d="M103.5 54.72C103.5 35.17 83.9 19.27 59.8 19.27C35.7 19.27 16.11 35.17 16.11 54.72C16.11 72.25 31.66 86.93 52.65 89.72C54.08 90.03 56.01 90.66 56.5 91.88C56.8487 93.1856 56.8966 94.5532 56.64 95.88L56 99.55C55.81 100.65 55.12 103.87 59.78 101.9C64.44 99.93 85 87.09 94.13 76.54C100.46 69.54 103.5 62.54 103.5 54.72Z" fill="white"/>
<path d="M50.93 45.28H47.86C47.6346 45.28 47.4184 45.3695 47.259 45.5289C47.0996 45.6883 47.01 45.9046 47.01 46.13V65.13C47.01 65.3554 47.0996 65.5716 47.259 65.731C47.4184 65.8904 47.6346 65.98 47.86 65.98H50.93C51.1554 65.98 51.3716 65.8904 51.5311 65.731C51.6905 65.5716 51.78 65.3554 51.78 65.13V46.13C51.78 45.9046 51.6905 45.6883 51.5311 45.5289C51.3716 45.3695 51.1554 45.28 50.93 45.28Z" fill="#00B900"/>
<path d="M72 45.28H69C68.7746 45.28 68.5584 45.3695 68.399 45.5289C68.2396 45.6883 68.15 45.9046 68.15 46.13V57.44L59.38 45.65L59.32 45.57L59.27 45.52H59.22H59.17H55.87C55.6446 45.52 55.4284 45.6095 55.269 45.7689C55.1096 45.9283 55.02 46.1445 55.02 46.37V65.37C55.02 65.5954 55.1096 65.8116 55.269 65.971C55.4284 66.1304 55.6446 66.22 55.87 66.22H58.93C59.1564 66.22 59.3736 66.1308 59.5346 65.9716C59.6956 65.8125 59.7874 65.5963 59.79 65.37V53.86L68.52 65.65C68.5751 65.7369 68.6506 65.809 68.74 65.86H68.79H68.85C68.8936 65.9131 68.9441 65.9601 69 66H72C72.2255 66 72.4417 65.9104 72.6011 65.751C72.7605 65.5916 72.85 65.3754 72.85 65.15V46.15C72.85 45.9246 72.7605 45.7083 72.6011 45.5489C72.4417 45.3895 72.2255 45.3 72 45.3" fill="#00B900"/>
<path d="M43.54 61.25H35.2099V46.13C35.2099 45.9046 35.1204 45.6883 34.961 45.5289C34.8016 45.3695 34.5854 45.28 34.36 45.28H31.2999C31.0745 45.28 30.8583 45.3695 30.6989 45.5289C30.5395 45.6883 30.45 45.9046 30.45 46.13V65.13C30.4498 65.3486 30.5319 65.5592 30.68 65.72C30.8407 65.868 31.0514 65.9502 31.27 65.95H43.54C43.7654 65.95 43.9816 65.8604 44.141 65.701C44.3004 65.5416 44.3899 65.3254 44.3899 65.1V62.1C44.3899 61.8745 44.3004 61.6583 44.141 61.4989C43.9816 61.3395 43.7654 61.25 43.54 61.25Z" fill="#00B900"/>
<path d="M89 50C89.1116 50 89.2222 49.978 89.3253 49.9353C89.4284 49.8926 89.5221 49.83 89.6011 49.751C89.68 49.6721 89.7426 49.5784 89.7853 49.4753C89.828 49.3721 89.85 49.2616 89.85 49.15V46.13C89.85 45.9046 89.7605 45.6883 89.6011 45.5289C89.4417 45.3695 89.2254 45.28 89 45.28H76.7C76.4797 45.2805 76.2681 45.3665 76.11 45.52C76.0331 45.5977 75.9724 45.6898 75.9312 45.791C75.89 45.8923 75.8692 46.0007 75.87 46.11V65.11C75.8692 65.2193 75.89 65.3277 75.9312 65.4289C75.9724 65.5302 76.0331 65.6223 76.11 65.7C76.2681 65.8534 76.4797 65.9395 76.7 65.94H89C89.2254 65.94 89.4417 65.8504 89.6011 65.691C89.7605 65.5316 89.85 65.3154 89.85 65.09V62.1C89.85 61.8745 89.7605 61.6583 89.6011 61.4989C89.4417 61.3395 89.2254 61.25 89 61.25H80.62V58H89C89.2254 58 89.4417 57.9104 89.6011 57.751C89.7605 57.5916 89.85 57.3754 89.85 57.15V54.11C89.85 53.9984 89.828 53.8878 89.7853 53.7847C89.7426 53.6816 89.68 53.5879 89.6011 53.5089C89.5221 53.43 89.4284 53.3674 89.3253 53.3247C89.2222 53.282 89.1116 53.26 89 53.26H80.62V50H89Z" fill="#00B900"/>
</svg>
